<svg width="1440" height="1452" viewBox="0 0 1440 1452" fill="none" xmlns="http://www.w3.org/2000/svg">
<path d="M0 497.5L1451 586V912L0 1116V497.5Z" fill="#F0E8FF"/>
<path d="M1698.64 792.436C1641.35 913.902 1357.73 1144.51 681.559 1095.22C-57.8794 1041.31 -259.96 1324.17 -305.216 1420.72C-313.212 1445.42 -318.112 1457.1 -316.124 1449.19C-314.955 1444.53 -311.69 1434.53 -305.216 1420.72C-283.128 1352.49 -237.414 1184.91 -248 1056.5L1466 821.001L1698.64 792.436Z" fill="#F0E8FF"/>
<path d="M1698.64 792.436C1641.35 913.902 1357.73 1144.51 681.559 1095.22C-57.8794 1041.31 -259.96 1324.17 -305.216 1420.72C-313.212 1445.42 -318.112 1457.1 -316.124 1449.19C-314.955 1444.53 -311.69 1434.53 -305.216 1420.72C-283.128 1352.49 -237.414 1184.91 -248 1056.5L1466 821.001L1698.64 792.436Z" fill="url(#paint0_linear)" fill-opacity="0.5"/>
<path d="M643.991 341.957C-110.267 160.204 -477.265 330.572 -566.482 438.476L-524 467L1770.5 607C1789.44 432.523 1857.3 163.64 1842.86 191.373C1824.8 226.039 1586.81 569.148 643.991 341.957Z" fill="#F0E8FF"/>
<path d="M643.991 341.957C-110.267 160.204 -477.265 330.572 -566.482 438.476L-524 467L1770.5 607C1789.44 432.523 1857.3 163.64 1842.86 191.373C1824.8 226.039 1586.81 569.148 643.991 341.957Z" fill="url(#paint1_linear)" fill-opacity="0.58"/>
<defs>
<linearGradient id="paint0_linear" x1="711.955" y1="1339.97" x2="741.633" y2="1052.58" gradientUnits="userSpaceOnUse">
<stop stop-color="white"/>
<stop offset="1" stop-color="white" stop-opacity="0"/>
</linearGradient>
<linearGradient id="paint1_linear" x1="646.908" y1="241.273" x2="620.051" y2="586.229" gradientUnits="userSpaceOnUse">
<stop stop-color="white"/>
<stop offset="1" stop-color="white" stop-opacity="0"/>
</linearGradient>
</defs>
</svg>
